# xmcd
#
# Track frame offsets:
#	150
#	16590
#	35112
#	51125
#	68347
#	86202
#	99790
#	114680
#	132700
#	152780
#	166402
#	180005
#	195730
#	212395
#
# Disc length: 3048 seconds
#
# Revision: 28
# Processed by: cddbd v1.5.2PL0 Copyright (c) Steve Scherf et al.
# Submitted via: EZCDAudioConverter 8.0.2.1
#
DISCID=af0be60e
DTITLE=CHITÃOZINHO and XORORÓ - CLÁSSICOS SERTANEJOS [CD 532 708-2) POLYGRAM
DYEAR=1996
DGENRE=SERTANEJO
TTITLE0=LUAR DO SERTÃO (PART. ESP. SIMONE) (BY GILMAR SINISTRO)
TTITLE1=COLCHA DE RETALHOS (PART. ESP. LEANDRO and LEONARDO) (BY GILMAR SINISTRO
TTITLE1=)
TTITLE2=É DISSO QUE O VELHO GOSTA (BY GILMAR SINISTRO)
TTITLE3=ASA BRANCA (PART. ESP. NEY MATOGROSSO) (BY GILMAR SINISTRO)
TTITLE4=CHITÃOZINHO and XORORÓ (PART. ESP. SÉRGIO REIS) (BY GILMAR SINISTRO)
TTITLE5=SAUDADE DE MINHA TERRA (PART. ESP. JOÃO PAULO and DANIEL) (BY GILMAR SIN
TTITLE5=ISTRO)
TTITLE6=CABOCLO NA CIDADE (BY GILMAR SINISTRO)
TTITLE7=TRISTEZA DO JECA (PART. ESP. CHRYSTIAN and RALF) (BY GILMAR SINISTRO)
TTITLE8=CABOCLA TEREZA (PART. ESP. FAGNER) (BY GILMAR SINISTRO)
TTITLE9=POMBINHA BRANCA (PART. ESP. ZEZÉ DI CAMARGO and LUCIANO) (BY GILMAR SINI
TTITLE9=STRO)
TTITLE10=CAVALO ENXUTO (BY GILMAR SINISTRO)
TTITLE11=AMOR DISTANTE (PART. ESP. ALMIR SATER) (BY GILMAR SINISTRO)
TTITLE12=VOU TOMÁ UM PINGÃO (PART. ESP. LÉO CANHOTO and ROBERTINHO) (BY GILMAR S
TTITLE12=INISTRO)
TTITLE13=CORAÇÃO SERTANEJO (BY GILMAR SINISTRO)
EXTD=
EXTT0=
EXTT1=
EXTT2=
EXTT3=
EXTT4=
EXTT5=
EXTT6=
EXTT7=
EXTT8=
EXTT9=
EXTT10=
EXTT11=
EXTT12=
EXTT13=
PLAYORDER=
